<svg xmlns="http://www.w3.org/2000/svg" viewBox="0 0 399.08 104.5"><defs><style>.cls-1{font-size:92.77px;font-family:Roboto-Medium, Roboto;font-weight:500;}.cls-1,.cls-2{fill:#1d1d1b;}.cls-2{stroke:#1d1d1b;stroke-miterlimit:10;}</style></defs><g id="Layer_2" data-name="Layer 2"><g id="Layer_1-2" data-name="Layer 1"><text class="cls-1" transform="translate(122.4 79.36)">flow ui</text><path class="cls-2" d="M90.62,9V24.59H75a13.35,13.35,0,0,0-6.19,1.51c-5.59,2.9-13.62,9.78-23,9.78-8.71,0-18.52-6.7-24.5-9.66a15.61,15.61,0,0,0-6.93-1.63H.5V9c8.93,0,12.69-.24,17.44-.17,11.07.18,15.88,11,27.62,11,10.78.07,16.62-11,28.71-11C79.64,8.9,80.49,9,90.62,9Z"/><path class="cls-2" d="M90.62,30.08V48.17H75a14.57,14.57,0,0,0-6.19,1.37c-5.59,2.65-13.62,8.93-23,8.93-8.71,0-18.52-6.11-24.5-8.82a17,17,0,0,0-6.93-1.48H.5V30.08H14.36a17,17,0,0,1,6.93,1.48c6,2.7,15.56,9.52,24.27,9.52,9.42,0,17.68-7,23.27-9.63A14.42,14.42,0,0,1,75,30.08Z"/><path class="cls-2" d="M90.62,53.35V71c-5.91,0-10.42.08-14.46,0-16-.29-17.51,9.25-30.6,9.25-12.49,0-17.72-9.54-28.74-9.25-5.32.14-7.51,0-16.32,0V53.35H14.36a16.24,16.24,0,0,1,6.93,1.55c6,2.83,15.9,8.31,24.6,8.31,9.42,0,14.4-4,20-6.8,1.91-.95,5.45-3.06,9.14-3.06Z"/></g></g></svg>